<?xml version="1.0" encoding="utf-8"?>

<svg version="1.1" xmlns="http://www.w3.org/2000/svg" xmlns:xlink="http://www.w3.org/1999/xlink" x="0px" y="0px"
	 viewBox="0 0 256 256" style="enable-background:new 0 0 256 256;" xml:space="preserve">
<style>
#head {
    fill: #FFFFFF;
}

#bg {
    fill: #43B581;
}
</style>
<g>
	<path id="head" d="M84.3,192.8c3.3-4.4,6.9-8.6,10.2-13c-10.6-3.2-20.9-9.2-27.1-18.7c14.8,8.4,31,14.8,47.9,16.8
		c22.8,3.3,46.2-1.8,66.6-12.2c2.9-1.7,5.8-3.2,8.8-4.6c-6.3,9.7-16.9,15.8-27.8,18.9c3.2,4.4,6.7,8.4,9.9,12.8
		c18.5-0.6,37.4-8.8,47.9-24.4c-0.2-29.9-7.5-59.5-19.5-86.8c-1.4-2.6-2.1-5.6-4.3-7.6c-12.4-9.2-27.4-15.3-43-16.2l-2,2.2
		c13.9,4.3,27.5,10.5,38.5,20.2c-4.3-3.2-9.6-4.1-14.4-6.3c-27.4-11.3-58.6-11.9-86.9-3.7c-8.7,2.5-16.9,6.5-25.4,9.8
		C75.3,69.7,90,63.6,104.6,59.2c-0.9-1-2.3-1.4-3.6-1.2c-14.9,1.2-29.1,7.2-41,16c-2.2,2-2.8,5-4.2,7.6
		c-12,27.3-19.3,56.9-19.5,86.8C46.8,184,65.7,192.2,84.3,192.8z M152,118L152,118c5.5-1.7,12-0.3,16,4c6.8,6.7,7.2,18.6,1,25.8
		c-2.9,3.5-7.3,6-11.9,5.7c-8.6,0.4-15.8-7.4-16.6-15.6C139.1,129.7,144,120.9,152,118z M98.1,117.5c8.2-0.9,15.8,6.1,17.1,14
		c0.9,4.8,0.2,9.7-1.9,14c-3.3,4.2-7.7,8.4-13.4,8.3c-9.6,0.9-17.5-8.5-17.3-17.7v0C82,127.2,88.9,117.7,98.1,117.5z"/>
	<path id="bg" d="M157,153.6c4.6,0.2,9-2.3,11.9-5.7c6.2-7.2,5.8-19.1-1-25.8c-4-4.3-10.5-5.6-16-4l0,0
		c-8,2.8-12.9,11.7-11.5,20C141.2,146.2,148.4,154,157,153.6z"/>
	<path id="bg" d="M0,256h256V0H0V256z M55.8,81.6C57.2,79,57.8,76,60,74c11.9-8.8,26.1-14.8,41-16c1.3-0.2,2.7,0.2,3.6,1.2
		C90,63.6,75.3,69.7,63.8,80c8.4-3.3,16.6-7.3,25.4-9.8c28.3-8.2,59.5-7.6,86.9,3.7c4.8,2.2,10.1,3.1,14.4,6.3
		c-11-9.8-24.6-15.9-38.5-20.2l2-2.2c15.6,0.9,30.6,7,43,16.2c2.2,2,2.9,5,4.3,7.6c12,27.3,19.3,56.9,19.5,86.8
		c-10.6,15.6-29.5,23.8-47.9,24.4c-3.3-4.3-6.8-8.4-9.9-12.8c10.9-3.1,21.5-9.2,27.8-18.9c-3,1.4-6,2.9-8.8,4.6
		c-20.3,10.4-43.8,15.5-66.6,12.2c-16.9-2-33.1-8.5-47.9-16.8c6.2,9.5,16.4,15.5,27.1,18.7c-3.3,4.4-6.9,8.6-10.2,13
		c-18.5-0.6-37.4-8.8-48-24.4C36.5,138.5,43.8,108.9,55.8,81.6z"/>
	<path id="bg" d="M82.6,136c-0.2,9.1,7.7,18.6,17.3,17.7c5.7,0.1,10.2-4,13.4-8.3c2.1-4.3,2.8-9.2,1.9-14
		c-1.3-7.9-8.9-14.8-17.1-14C88.9,117.7,82,127.2,82.6,136L82.6,136z"/>
</g>
</svg>
