<?xml version="1.0" encoding="utf-8"?>
<!-- Generator: Adobe Illustrator 21.0.0, SVG Export Plug-In . SVG Version: 6.00 Build 0)  -->
<svg version="1.1" xmlns="http://www.w3.org/2000/svg" xmlns:xlink="http://www.w3.org/1999/xlink" x="0px" y="0px"
	 viewBox="0 0 800 272.1" style="enable-background:new 0 0 800 272.1;" xml:space="preserve">
<style type="text/css">
	.st0{fill:#2C2F33;}
	.st1{fill:#FFFFFF;}
	.st2{fill:#7289DA;}
</style>
<g id="katman_2">
	<rect x="-21.8" y="-21.6" class="st0" width="867.8" height="328.6"/>
</g>
<g id="Layer_1">
	<path class="st1" d="M142.8,120.1c-5.7,0-10.2,4.9-10.2,11s4.6,11,10.2,11c5.7,0,10.2-4.9,10.2-11S148.4,120.1,142.8,120.1z
		 M106.3,120.1c-5.7,0-10.2,4.9-10.2,11s4.6,11,10.2,11c5.7,0,10.2-4.9,10.2-11C116.6,125,112,120.1,106.3,120.1z"/>
	<path class="st1" d="M191.4,36.9h-134c-11.3,0-20.5,9.2-20.5,20.5v134c0,11.3,9.2,20.5,20.5,20.5h113.4l-5.3-18.3l12.8,11.8
		l12.1,11.1l21.6,18.7V57.4C211.9,46.1,202.7,36.9,191.4,36.9z M152.8,166.4c0,0-3.6-4.3-6.6-8c13.1-3.7,18.1-11.8,18.1-11.8
		c-4.1,2.7-8,4.6-11.5,5.9c-5,2.1-9.8,3.4-14.5,4.3c-9.6,1.8-18.4,1.3-25.9-0.1c-5.7-1.1-10.6-2.6-14.7-4.3c-2.3-0.9-4.8-2-7.3-3.4
		c-0.3-0.2-0.6-0.3-0.9-0.5c-0.2-0.1-0.3-0.2-0.4-0.2c-1.8-1-2.8-1.7-2.8-1.7s4.8,7.9,17.5,11.7c-3,3.8-6.7,8.2-6.7,8.2
		c-22.1-0.7-30.5-15.1-30.5-15.1c0-31.9,14.4-57.8,14.4-57.8c14.4-10.7,28-10.4,28-10.4l1,1.2c-18,5.1-26.2,13-26.2,13
		s2.2-1.2,5.9-2.8c10.7-4.7,19.2-5.9,22.7-6.3c0.6-0.1,1.1-0.2,1.7-0.2c6.1-0.8,13-1,20.2-0.2c9.5,1.1,19.7,3.9,30.1,9.5
		c0,0-7.9-7.5-24.9-12.6l1.4-1.6c0,0,13.7-0.3,28,10.4c0,0,14.4,25.9,14.4,57.8C183.3,151.3,174.9,165.7,152.8,166.4L152.8,166.4z
		 M303.8,79.7h-33.2V117l22.1,19.9v-36.2h11.8c7.5,0,11.2,3.6,11.2,9.4v27.7c0,5.8-3.5,9.7-11.2,9.7h-34v21.1h33.2
		c17.8,0.1,34.5-8.8,34.5-29.2v-29.8C338.3,88.8,321.6,79.7,303.8,79.7z M477.8,139.4v-30.6c0-11,19.8-13.5,25.8-2.5l18.3-7.4
		c-7.2-15.8-20.3-20.4-31.2-20.4c-17.8,0-35.4,10.3-35.4,30.3v30.6c0,20.2,17.6,30.3,35,30.3c11.2,0,24.6-5.5,32-19.9l-19.6-9
		C497.9,153.1,477.8,150.1,477.8,139.4L477.8,139.4z M417.3,113c-6.9-1.5-11.5-4-11.8-8.3c0.4-10.3,16.3-10.7,25.6-0.8l14.7-11.3
		c-9.2-11.2-19.6-14.2-30.3-14.2c-16.3,0-32.1,9.2-32.1,26.6c0,16.9,13,26,27.3,28.2c7.3,1,15.4,3.9,15.2,8.9
		c-0.6,9.5-20.2,9-29.1-1.8l-14.2,13.3c8.3,10.7,19.6,16.1,30.2,16.1c16.3,0,34.4-9.4,35.1-26.6C448.9,121.4,433.1,115.9,417.3,113
		L417.3,113z M350.3,168.5h22.4V79.7h-22.4V168.5z M728,79.7h-33.2V117l22.1,19.9v-36.2h11.8c7.5,0,11.2,3.6,11.2,9.4v27.7
		c0,5.8-3.5,9.7-11.2,9.7h-34v21.1H728c17.8,0.1,34.5-8.8,34.5-29.2v-29.8C762.5,88.8,745.8,79.7,728,79.7z M565.1,78.5
		c-18.4,0-36.7,10-36.7,30.5v30.3c0,20.3,18.4,30.5,36.9,30.5c18.4,0,36.7-10.2,36.7-30.5V109C602,88.6,583.5,78.5,565.1,78.5z
		 M579.5,139.3c0,6.4-7.2,9.7-14.3,9.7c-7.2,0-14.4-3.1-14.4-9.7V109c0-6.5,7-10,14-10c7.3,0,14.7,3.1,14.7,10V139.3z M682.4,109
		c-0.5-20.8-14.7-29.2-33-29.2h-35.5v88.8h22.7v-28.2h4l20.6,28.2h28L665,138.1C675.7,134.7,682.4,125.4,682.4,109z M649.8,121
		h-13.2v-20.3h13.2C663.9,100.7,663.9,121,649.8,121z"/>
	<g>
		<path class="st1" d="M295.7,61.3c-0.7,1.6-1.6,2.9-2.8,4s-2.6,1.9-4.2,2.4s-3.3,0.8-5.2,0.8c-1.9,0-3.6-0.3-5.2-0.8
			c-1.6-0.5-3-1.3-4.1-2.4c-1.1-1.1-2-2.4-2.7-4c-0.6-1.6-0.9-3.5-0.9-5.7V36.9h7.8v18.8c0,2,0.4,3.6,1.3,4.7c0.9,1.1,2.2,1.7,4,1.7
			c1.8,0,3.1-0.5,4-1.6c0.9-1.1,1.3-2.6,1.3-4.6V36.9h7.8v18.8C296.7,57.8,296.4,59.7,295.7,61.3z"/>
		<path class="st1" d="M321.5,68l-12.3-18.6V68H302V36.9h7.5L321,54.3V36.9h7.2V68H321.5z"/>
		<path class="st1" d="M361.4,59c-0.7,2-1.7,3.7-3,5.1c-1.3,1.4-2.9,2.5-4.7,3.3c-1.9,0.8-3.9,1.2-6.2,1.2c-2.2,0-4.3-0.4-6.1-1.2
			c-1.8-0.8-3.4-1.9-4.7-3.3c-1.3-1.4-2.3-3.1-3-5.1c-0.7-2-1.1-4.2-1.1-6.6c0-2.4,0.4-4.6,1.1-6.6c0.7-2,1.7-3.7,3-5.1
			c1.3-1.4,2.9-2.5,4.7-3.3c1.8-0.8,3.9-1.2,6.1-1.2s4.3,0.4,6.1,1.2c1.8,0.8,3.4,1.9,4.7,3.3c1.3,1.4,2.3,3.1,3,5.1
			c0.7,2,1.1,4.2,1.1,6.6C362.5,54.8,362.1,57,361.4,59z M352.8,45.1c-1.2-1.8-3-2.7-5.3-2.7s-4,0.9-5.3,2.7
			c-1.2,1.8-1.9,4.3-1.9,7.4c0,3.1,0.6,5.6,1.9,7.4c1.2,1.8,3,2.7,5.3,2.7s4-0.9,5.3-2.7c1.2-1.8,1.9-4.3,1.9-7.4
			C354.7,49.4,354.1,46.9,352.8,45.1z"/>
		<path class="st1" d="M374.7,43.4v6.3h8.1l1.1,6.5h-9.2V68H367V36.9h18.6v6.5H374.7z"/>
		<path class="st1" d="M397.4,43.4v6.3h8.1l1.1,6.5h-9.2V68h-7.7V36.9h18.6v6.5H397.4z"/>
		<path class="st1" d="M412.6,68V36.9h7.7V68H412.6z"/>
		<path class="st1" d="M445,68c-1.5,0.4-3,0.6-4.8,0.6c-2.3,0-4.5-0.4-6.3-1.1c-1.9-0.8-3.5-1.8-4.8-3.2c-1.3-1.4-2.3-3.1-3-5.1
			c-0.7-2-1-4.2-1-6.6c0-2.4,0.4-4.6,1.1-6.6c0.7-2,1.7-3.7,3-5.1c1.3-1.4,2.9-2.5,4.7-3.3c1.8-0.8,3.8-1.2,6.1-1.2
			c1.8,0,3.4,0.2,4.8,0.5c1.4,0.4,2.7,0.9,3.8,1.5l-1.1,7c-1-0.7-2-1.3-3.2-1.8c-1.2-0.5-2.4-0.7-3.8-0.7c-2.3,0-4.2,0.8-5.6,2.5
			c-1.4,1.7-2.1,4.1-2.1,7.1c0,1.6,0.2,2.9,0.6,4.2c0.4,1.2,1,2.2,1.7,3c0.7,0.8,1.6,1.4,2.6,1.9c1,0.4,2.1,0.6,3.3,0.6
			c1.3,0,2.5-0.2,3.6-0.6c1.1-0.4,2.3-0.9,3.5-1.6l1,6.3C447.8,67,446.4,67.5,445,68z"/>
		<path class="st1" d="M453.7,68V36.9h7.7V68H453.7z"/>
		<path class="st1" d="M487.8,68.4l-2.3-6.8h-10.7l-2.2,6.5H465l11.2-31.3h8.5l10.8,30.3L487.8,68.4z M480.1,44.7l-3.5,10.8h7
			L480.1,44.7z"/>
		<path class="st1" d="M499,68V36.9h7.7v24.5h9.6l1,6.7H499z"/>
	</g>
	<g>
		<path class="st1" d="M283.6,211.8c-0.9,0.3-2,0.4-3.1,0.4c-1.5,0-2.9-0.2-4.1-0.7c-1.2-0.5-2.3-1.2-3.1-2.1
			c-0.8-0.9-1.5-2-1.9-3.3c-0.5-1.3-0.7-2.7-0.7-4.3c0-1.6,0.2-3,0.7-4.3c0.5-1.3,1.1-2.4,2-3.3c0.9-0.9,1.9-1.6,3.1-2.1
			c1.2-0.5,2.5-0.8,4-0.8c1.2,0,2.2,0.1,3.1,0.4c0.9,0.2,1.8,0.6,2.5,1l-0.7,4.5c-0.6-0.5-1.3-0.9-2.1-1.2c-0.8-0.3-1.6-0.5-2.5-0.5
			c-1.5,0-2.8,0.5-3.7,1.6c-0.9,1.1-1.4,2.6-1.4,4.6c0,1,0.1,1.9,0.4,2.7c0.3,0.8,0.6,1.4,1.1,2c0.5,0.5,1,0.9,1.7,1.2
			s1.4,0.4,2.1,0.4c0.8,0,1.6-0.1,2.4-0.4c0.7-0.3,1.5-0.6,2.3-1l0.6,4.1C285.4,211.2,284.5,211.6,283.6,211.8z"/>
		<path class="st1" d="M301.2,211.9v-8.3h-7v8.3h-5v-20.3h5v7.6h7v-7.6h5v20.3H301.2z"/>
		<path class="st1" d="M323.2,212.1l-1.5-4.4h-7l-1.4,4.2h-4.9l7.3-20.4h5.5l7.1,19.7L323.2,212.1z M318.2,196.7l-2.3,7.1h4.6
			L318.2,196.7z"/>
		<path class="st1" d="M337.6,195.9v16h-5.1v-16H327v-4.3h16l0.7,4.3H337.6z"/>
		<path class="st2" d="M387.9,211.9l-1.5-22.8l-6.5,22.8H372l-6.5-22.8l-1.5,22.8h-7.4l2.5-34.2h11l6.6,23.6l6.7-23.6h10.7l2.5,34.2
			H387.9z"/>
		<path class="st2" d="M424.3,212.3l-2.6-7.4H410l-2.4,7.1h-8.3l12.3-34.4h9.3l11.9,33.3L424.3,212.3z M415.8,186.3l-3.9,11.9h7.7
			L415.8,186.3z"/>
		<path class="st2" d="M458,211.9l-13.5-20.5v20.5h-7.9v-34.2h8.2l12.6,19.1v-19.1h7.9v34.2H458z"/>
		<path class="st2" d="M471.8,211.9v-34.2h8.5v34.2H471.8z"/>
		<path class="st2" d="M510.1,194c-0.7,1.5-1.6,2.7-2.8,3.6c-1.2,1-2.7,1.7-4.3,2.2s-3.6,0.7-5.7,0.7h-2.2v11.4h-8.5v-34.2h11
			c4.2,0,7.4,0.9,9.8,2.8c2.4,1.9,3.6,4.7,3.6,8.4C511.1,190.8,510.8,192.5,510.1,194z M497.2,184.1h-2.1v10.1h2
			c1.9,0,3.3-0.4,4.3-1.2c1-0.8,1.5-2.1,1.5-3.9C502.9,185.7,501,184.1,497.2,184.1z"/>
		<path class="st2" d="M542.3,204.5c-0.7,1.8-1.7,3.2-3,4.4c-1.3,1.2-2.8,2.1-4.6,2.6c-1.8,0.6-3.7,0.9-5.8,0.9
			c-2.1,0-4-0.3-5.8-0.8c-1.8-0.6-3.3-1.4-4.5-2.6c-1.3-1.2-2.2-2.6-2.9-4.4c-0.7-1.8-1-3.8-1-6.2v-20.7h8.5v20.6
			c0,2.2,0.5,3.9,1.5,5.2s2.4,1.8,4.3,1.8c2,0,3.4-0.6,4.4-1.8c1-1.2,1.4-2.9,1.4-5.1v-20.7h8.5v20.6
			C543.4,200.7,543.1,202.8,542.3,204.5z"/>
		<path class="st2" d="M549.3,211.9v-34.2h8.5v26.9h10.5l1.1,7.3H549.3z"/>
		<path class="st2" d="M595.8,212.3l-2.6-7.4h-11.8l-2.4,7.1h-8.3l12.3-34.4h9.3l11.9,33.3L595.8,212.3z M587.4,186.3l-3.9,11.9h7.7
			L587.4,186.3z"/>
		<path class="st2" d="M620.1,184.9v27h-8.5v-27h-9.5v-7.2h27.1l1.2,7.2H620.1z"/>
		<path class="st2" d="M662.9,202c-0.8,2.2-1.9,4.1-3.3,5.6c-1.4,1.6-3.1,2.8-5.2,3.6c-2,0.9-4.3,1.3-6.8,1.3
			c-2.4,0-4.7-0.4-6.7-1.3c-2-0.9-3.7-2.1-5.1-3.6c-1.4-1.6-2.5-3.4-3.3-5.6c-0.8-2.2-1.2-4.6-1.2-7.2c0-2.6,0.4-5.1,1.2-7.2
			c0.8-2.2,1.9-4.1,3.3-5.6c1.4-1.6,3.1-2.8,5.2-3.6c2-0.9,4.3-1.3,6.7-1.3c2.5,0,4.7,0.4,6.7,1.3c2,0.9,3.7,2.1,5.1,3.6
			c1.4,1.6,2.5,3.4,3.3,5.6c0.8,2.2,1.2,4.6,1.2,7.2S663.7,199.8,662.9,202z M653.5,186.7c-1.4-2-3.3-3-5.8-3c-2.5,0-4.4,1-5.8,3
			c-1.4,2-2.1,4.7-2.1,8.1c0,3.4,0.7,6.1,2.1,8.1c1.4,2,3.3,3,5.8,3c2.5,0,4.4-1,5.8-3c1.4-2,2.1-4.7,2.1-8.1
			C655.5,191.4,654.9,188.7,653.5,186.7z"/>
		<path class="st2" d="M696,210.8l-8.7,1.4l-7.5-12.1h-2.3v11.8h-8.4v-34.2h12c4.2,0,7.4,0.9,9.7,2.8c2.3,1.8,3.4,4.5,3.4,8.1
			c0,2.4-0.5,4.4-1.6,6c-1.1,1.6-2.7,2.9-4.7,3.7L696,210.8z M684.4,185.4c-1-0.8-2.4-1.3-4.2-1.3h-2.7v10h2.6
			c1.8,0,3.2-0.4,4.2-1.3c1-0.9,1.5-2.1,1.5-3.8C685.8,187.4,685.4,186.2,684.4,185.4z"/>
	</g>
</g>
<g id="katman_3">
</g>
<g id="katman_4">
</g>
<g id="katman_5">
</g>
</svg>
